/* XPM */
static char * coll32x32_xpm[] = {
"32 32 20 1",
" 	c None",
".	c #17111A",
"+	c #82888B",
"@	c #B2BCC2",
"#	c #ECEEF0",
"$	c #F2F3F4",
"%	c #F7F8F8",
"&	c #E0E1E2",
"*	c #505C63",
"=	c #CAD1D5",
"-	c #DFE3E5",
";	c #71797E",
">	c #515D64",
",	c #E0E3E5",
"'	c #717E86",
")	c #1E151C",
"!	c #8F9CA4",
"~	c #7A878E",
"{	c #141018",
"]	c #1A131A",
"                                ",
"                                ",
"                                ",
"                                ",
"                                ",
"                                ",
"                                ",
"          ............          ",
"        ..++@#$%%$#@++..        ",
"       .++&###%%%%####++.       ",
"      .++*@@##%%%%##@@*++.      ",
"     .++*+@@@@@==@@@@@@*++.     ",
"    .++*+@@@@@=--=@@@@@@*++.    ",
"   .++*+##@@@=----=@@@@@+*++.   ",
"   .+*;+&#@@@------@@@=++;>;.   ",
"   .***;++@=##-----@@@,'>*>>.   ",
"    )***;+++##-----!!**>*>>.    ",
"     .***++++#====@!~*>**>.     ",
"      .**;+++#@@@@@!~>>*>.      ",
"       {**+++@#@@@@~*>*>.       ",
"        )*;+++#@@@@>>>>.        ",
"         )*;++#@@@!>>>.         ",
"          )*++@#@@!>>)          ",
"           ]*++#@!>>)           ",
"            .;+#@!>.            ",
"             .+@@>.             ",
"              .#!.              ",
"               ..               ",
"                                ",
"                                ",
"                                ",
"                                "};
