/* XPM */
static char * Props_xpm[] = {
"11 7 5 1",
" 	c None",
".	c #623E19",
"+	c #FFD967",
"@	c #211511",
"#	c #8A6D37",
"        .. ",
"       .++.",
".......+.@#",
".+++++++@@#",
"@#@#@@@#@.#",
"@@ @@  @##@",
"        @@ "};
