/* XPM */
static char * exit_open_xpm[] = {
"32 32 10 1",
" 	c #162527",
".	c #0F1A1B",
"+	c #243A3C",
"@	c #1D2E30",
"#	c #607897",
"$	c #7998BF",
"%	c #394554",
"&	c #2B3037",
"*	c #343C45",
"=	c #56687E",
"                              ..",
" +++++++ @@@@@@@ +++++++@+++++++",
" +++++++ ++#$$$$$$$$#+++@+++++++",
" +++++++@$$$$$$$$$$$$$$+@+++++++",
" ++++++$$$$#%&&&&&&%#$$$$+++++++",
" +++++$$$#%&&&&&&&&&&%#$$$++++++",
" ++++#$$%&&&&&++@+&&&&&%$$#+++++",
" +++###%&&&+++++@++++&&&%###++++",
" @@###%&&@@@@@@@@@@@@@@&&%###@@@",
" +%##%&&@+++++++@+++++++&&%##%++",
" +###&&+@+++++++@+++++++@&&###++",
"####&&++@+++++++@+++++++@+&&####",
"####&+++@+++++++@+++++++@++&####",
"%%%%&+++@+++++++@+++++++@++&%%%%",
"%%%%++++@+++++++@+++++++@+++%%%%",
"&&&&++++@+++++++@+++++++@+++&&&&",
"  @@@@@@@@@@@@@@@@@@@@@@@@@@@@@ ",
"**++++++@+++++++@+++++++@+++++**",
"**++++++@+++++++@+++++++@+++++**",
"%%++++++@+++++++@+++++++@+++++%%",
"==++++++@+++++++@+++++++@+++++==",
"==++++++@+++++++@+++++++@+++++==",
"==++++++@+++++++@+++++++@+++++==",
"==++++++@+++++++@+++++++@+++++==",
"==@@@@@@@@@@@@@@@@@@@@@@@@@@@@==",
"==++++++@+++++++@+++++++@+++++==",
"==++++++@+++++++@+++++++@+++++==",
"%%++++++@+++++++@+++++++@+++++%%",
"==++++++@+++++++@+++++++@+++++==",
"%%++++++@+++++++@+++++++@+++++%%",
"==++++++@+++++++@+++++++@+++++==",
"%%++++++@+++++++@+++++++@+++++%%"};
