/* XPM */
static char * exit_closed_xpm[] = {
"32 32 16 1",
" 	c #162527",
".	c #0F1A1B",
"+	c #243A3C",
"@	c #1D2E30",
"#	c #607897",
"$	c #7998BF",
"%	c #394554",
"&	c #2B3037",
"*	c #191C1E",
"=	c #141412",
"-	c #281818",
";	c #332520",
">	c #3D3122",
",	c #523D2A",
"'	c #343C45",
")	c #56687E",
"                              ..",
" +++++++ @@@@@@@ +++++++@+++++++",
" +++++++ ++#$$$$$$$$#+++@+++++++",
" +++++++@$$$$$$$$$$$$$$+@+++++++",
" ++++++$$$$#%&&&&&&%#$$$$+++++++",
" +++++$$$#%&&&&&&&&&&%#$$$++++++",
" ++++#$$%&&&&&****&&&&&%$$#+++++",
" +++###%&&&*========*&&&%###++++",
" @@###%&&*============*&&%###@@@",
" +%##%&&*===---==---===*&&%##%++",
" +###&&===---;;--;;---===&&###++",
"####&&*==-;;-;;--;;-;;-==*&&####",
"####&*==-;;;-;;--;;-;;;-==*&####",
"%%%%&==--;;;->>-->>-;;;--==&%%%%",
"%%%%*=--->>>->>;;>>->>>---=*%%%%",
"&&&&==;;-;;;-,,;;,,-;;;-;;==&&&&",
"=====-;;->>>-,,;;,,->>>-;;-=====",
"''**=;;;->>>-,,;;,,->>>-;;;=**''",
"''**=;;;-,,,;,,;;,,;,,,-;;;=**''",
"%%**->>>-,,,;,,;;,,;,,,->>>-**%%",
"))**->>>-,,,;,,;;,,;,,,-;;;-**))",
"))**-,,,-,,,;,,;;,,;,,,-,,,-**))",
"))**-,,,;,,,;,,;;,,;,,,;,,,-**))",
"))**-,,,;,,,;,,;;,,;,,,;,,,-**))",
"))**-,,,;,,,;,,;;,,;,,,;,,,-**))",
"))**-,,,;,,,;,,;;,,;,,,;,,,-**))",
"))**-,,,;,,,;,,;;,,;,,,;,,,-**))",
"%%**-,,,;,,,;,,;;,,;,,,;,,,-**%%",
"))**-,,,;>>>;,,;;,,;>>>;,,,-**))",
"%%**-,,,;,,,;,,;;,,;,,,;,,,-**%%",
"))**->>>;>>>;>>;;>>;>>>;>>>-**))",
"%%**-,,,;>>>;,,;;,,;>>>;,,,-**%%"};
