/* XPM */
static char * Tiles_xpm[] = {
"29 46 12 1",
" 	c #141412",
".	c #607897",
"+	c #7998BF",
"@	c #394554",
"#	c #2B3037",
"$	c #191C1E",
"%	c #281818",
"&	c #332520",
"*	c #3D3122",
"=	c #523D2A",
"-	c #343C45",
";	c #56687E",
"          .++++++++.         ",
"        ++++++++++++++       ",
"      ++++.@######@.++++     ",
"     +++.@##########@.+++    ",
"$$$$.++@#####$$$$#####@++.$$$",
"$$$...@###$        $###@...$$",
"$$...@##$            $##@...$",
"$@..@##$   %%%  %%%   $##@..@",
" ...##   %%%&&%%&&%%%   ##...",
"...##$  %&&%&&%%&&%&&%  $##..",
"...#$  %&&&%&&%%&&%&&&%  $#..",
"@@@#  %%&&&%**%%**%&&&%%  #@@",
"@@@$ %%%***%**&&**%***%%% $@@",
"###  &&%&&&%==&&==%&&&%&&  ##",
"    %&&%***%==&&==%***%&&%   ",
"-$$ &&&%***%==&&==%***%&&& $$",
"-$$ &&&%===&==&&==&===%&&& $$",
"@$$%***%===&==&&==&===%***%$$",
";$$%***%===&==&&==&===%&&&%$$",
";$$%===%===&==&&==&===%===%$$",
";$$%===&===&==&&==&===&===%$$",
";$$%===&===&==&&==&===&===%$$",
";$$%===&===&==&&==&===&===%$$",
";$$%===&===&==&&==&===&===%$$",
";$$%===&===&==&&==&===&===%$$",
"@$$%===&===&==&&==&===&===%$$",
";$$%===&***&==&&==&***&===%$$",
"@$$%===&===&==&&==&===&===%$$",
";$$%***&***&**&&**&***&***%$$",
"@$$%===&***&==&&==&***&===%$$",
"@$$%***&***&**&&**&***&***%$$",
"@$$%***&***&**&&**&***&***%$$",
"@$$%***&***&**&&**&***&***%$$",
"@$$%***&***&**&&**&***&***%$$",
"@$$%***&***&**&&**&***&***%$$",
"@$$%***&***&**&&**&***&***%$$",
"@$$%***&***&**&&**&***&***%$$",
"@$$%***&***&**&&**&***&***%$$",
"@$$%***&***&**&&**&***&***%$$",
"@$$%***%***%**&&**%***%***%$$",
"@$$%&&&%***%**&&**%***%&&&%$$",
"@$$%&&&%&&&%**%%**%&&&%&&&%$$",
"@$$%&&&%&&&$&&%%&&$&&&%&&&%$$",
"@$$%&&&%&&&$&&$$&&$&&&%&&&%$$",
"$$$%&&&$&&&$&&$$&&$&&&$&&&%$$",
"$$$$$$$$$$$$$$$$$$$$$$$$$$$$$"};
