/* XPM */
static char * Tiles_xpm[] = {
"48 47 4 1",
" 	c #162527",
".	c #0F1A1B",
"+	c #1D2E30",
"@	c #243A3C",
"       . + +   .   . . .       .   . . .       .",
"       . + +   .   . . .       .   . . .       .",
"  +++++.+++++++.+++++++.+++++++.+++++++.       .",
"  +++++ +++++++ +++++++ +++++++ +++++++.       .",
"  +++++ +++++++ +++++++ +++++++ +++++++.       .",
"+++++++ +++++++ +++++++ +++++++ +++++++.       .",
"  +++++ @@@@@@@ +++++++ @@@@@@@ +++++++.+++++++.",
"...                                  ...........",
"  ++++@ @@@@@@@ +++++++ @@@@@@@+@@@@@@@.+++++++.",
"++++++@ @@@@@@@ @@@@@@@ @@@@@@@+@@@@@@@.+++++++.",
"  ++++@ @@@@@@@+@@@@@@@+@@@@@@@+@@@@@@@ +++++++.",
"  ++++@ @@@@@@@+@@@@@@@+@@@@@@@+@@@@@@@ +++++++.",
"  ++++@ @@@@@@@+@@@@@@@+@@@@@@@+@@@@@@@ +++++++.",
"  ++++@ @@@@@@@+@@@@@@@+@@@@@@@+@@@@@@@ +++++++.",
"  ++++@ @@@@@@@+@@@@@@@+@@@@@@@+@@@@@@@ +++++++.",
"...     +++++++++++++++++++++++++++++++      ...",
"..+++++ @@@@@@@+@@@@@@@+@@@@@@@+@@@@@@@ @++++++.",
"..+++++ @@@@@@@+@@@@@@@+@@@@@@@+@@@@@@@ @++++++.",
"  +++++ @@@@@@@+@@@@@@@+@@@@@@@+@@@@@@@ @++++++.",
"..+++++ @@@@@@@+@@@@@@@+@@@@@@@+@@@@@@@ @++++++.",
"  +++++ @@@@@@@+@@@@@@@+@@@@@@@+@@@@@@@ @++++++.",
"  +++++ @@@@@@@+@@@@@@@+@@@@@@@+@@@@@@@.@++++++.",
"  +++++ @@@@@@@+@@@@@@@+@@@@@@@+@@@@@@@.@++++++.",
"...      +++++++++++++++++++++++++++++ .     ...",
"  ++++@ @@@@@@@+@@@@@@@+@@@@@@@+@@@@@@@.+++++++.",
"  ++++@ @@@@@@@+@@@@@@@+@@@@@@@+@@@@@@@ +++++++.",
"  ++++@ @@@@@@@+@@@@@@@+@@@@@@@+@@@@@@@ +++++++.",
"  ++++@ @@@@@@@+@@@@@@@+@@@@@@@+@@@@@@@ +++++++.",
"  ++++@ @@@@@@@+@@@@@@@+@@@@@@@+@@@@@@@ +++++++.",
"  ++++@ @@@@@@@+@@@@@@@+@@@@@@@+@@@@@@@ +++++++.",
"  ++++@ @@@@@@@+@@@@@@@+@@@@@@@+@@@@@@@ +++++++.",
"...     +++++++++++++++++++++++++++++++      ...",
"..+++++ @@@@@@@+@@@@@@@+@@@@@@@+@@@@@@@ @++++++.",
"..+++++ @@@@@@@+@@@@@@@+@@@@@@@+@@@@@@@ @++++++.",
"  +++++ @@@@@@@+@@@@@@@+@@@@@@@+@@@@@@@ @++++++.",
"..+++++ @@@@@@@+@@@@@@@+@@@@@@@+@@@@@@@ @++++++.",
"  +++++ @@@@@@@+@@@@@@@+@@@@@@@+@@@@@@@ @++++++.",
"  +++++ @@@@@@@+@@@@@@@+@@@@@@@+@@@@@@@.@++++++.",
"  +++++ @@@@@@@+@@@@@@@+@@@@@@@+@@@@@@@.@++++++.",
"...      +++++++++++++++++++++++++++++ .     ...",
"  ++++@ @@@@@@@+@@@@@@@+@@@@@@@+@@@@@@@.+++++++.",
"  ++++@ @@@@@@@+@@@@@@@+@@@@@@@+@@@@@@@ +++++++.",
"  ++++@ @@@@@@@+@@@@@@@+@@@@@@@+@@@@@@@ +++++++.",
"..    +.+++++++ +++++++ +++++++ +++++++.       .",
"..    +.+++++++ +++++++ +++++++ +++++++.       .",
"..    +.+++++++ +++++++ +++++++ +++++++.       .",
".........                             .........."};
