/* XPM */
static char * Knight_xpm[] = {
"19 29 8 1",
" 	c None",
".	c #242A36",
"+	c #141412",
"@	c #5C8EA5",
"#	c #8AC6E0",
"$	c #3B535E",
"%	c #B56C30",
"&	c #47280D",
"     .......+++    ",
"    ..@###$@$.++   ",
"   ..#####$@$..++  ",
"  ..@#####$@$...++ ",
"  .@@@#......+++++ ",
"  .@@..$######@#@+ ",
"  .$..$@######@#@+ ",
"  .$.@@@######@#@+ ",
"  .$%%@$++++++++++ ",
"  .$%%.+.+.+.+.+++ ",
"  .+...+$.$.$.$++  ",
"   ++.$$########+  ",
"    ++.$$@@@@@@$+  ",
"   $##@.++++++++++ ",
"  +####$$$..+..$..+",
"  +####$$$$@@@$$..+",
"  +@##$+@@#####@..+",
"   +++++$$$@@@$$++ ",
"    ++..$$$@@@$$+  ",
"     +..$$$@@@$.+  ",
"     ++&&&%%%%%+   ",
"     ++.....&.&+   ",
"     +$$$.$$%$%.+  ",
"    +$$$..$$%$%.+  ",
"    +..+++$$$$$+++ ",
"   +%%%%++$$$$$%%+ ",
"  +&&&&++++++&&&+  ",
" +&&&&+     +&&&+  ",
"+%%%&+      +%%%%+ "};
