/* XPM */
static char * wall32x32_xpm[] = {
"32 32 8 1",
" 	c #607897",
".	c #56687E",
"+	c #394554",
"@	c #343C45",
"#	c #2B3037",
"$	c #141412",
"%	c #191C1E",
"&	c #24282C",
"   ...... .        ...... .     ",
"   ...... .        ...... .     ",
"+++@@@@@@+@++++++++@@@@@@+@+++++",
"+++@@@@@@+@++++++++@@@@@@+@+++++",
"################################",
"$$$$$$$$$$$$$$$$$$$$$$$$$$$$$$$$",
"$%%%%%%%%%%%&&&&%&&&&&&&&&&&&&&&",
"$%%%%%%%%%%%&&&&%&&&&&&&&&&&&&&&",
"$$$$$%%%%%%%%%%%%%%%%%%%%%%%%%%%",
"$$&&&&&&#%@@@@@@@@#@#####%@@@@@@",
"$$%%%&&&#&@@@@@@@@#@#####&@@@@@@",
"$$%%%&&&#&@@@@@@@@#@#####&@@@@@@",
"$$$$$$%%&&&&&&&&&&&&&&&&&&&&&&&&",
"$%%&&###@@@@@@@@#++++@+@@@@@@@@@",
"$%%&&###@@@@@@@@#++++@+@@@@@@@@@",
"$%%&&###@@@@@@@@&++++@+@@@@@@@@@",
"$$$$$$%%&&&&&&&&&&&&#########&&&",
"$$%%#@@@@&+++++++++++++++#++++++",
"$$%%%####&@@@@@@@@@@+++++#@@@@@@",
"$$%%%####&@@@@@@@@@@+++++&@@@@@@",
"$$$$$$%%&&&&&&&&&&&&&&&&&&&&&&&&",
"$%&&####@@@@@@@@&+++++@@@@@@@@@@",
"$%%%&&&&########&@@#@###########",
"$%%%&&&&########%@@#@###########",
"$$$$$$%%%%%%%%%%%%%%%%%%%%%%%%%%",
"$$%%%&%&&%########&#&&&&&%######",
"$$%%%&%&&%########&#&&&&&%######",
"$$%%%&%&&%########&#&&&&&%######",
"$$$$$%%%%%%%%%%%%%%%%%%%%%%%%%%%",
"&&&&#&##@@++++++++++++++++++++++",
"&&&&#&##@@++++++++++++++++++++++",
"$$$$$$$$$$$%%%%%%%%%%%%%%%%%%%%%"};
